<svg width="44" height="44" viewBox="0 0 44 44" fill="none" xmlns="http://www.w3.org/2000/svg">
<path fill-rule="evenodd" clip-rule="evenodd" d="M26.7022 8.73719e-07L6 0C2.68629 -1.39851e-07 1.59874e-06 2.68629 1.44872e-06 6L0 38C-1.50016e-07 41.3137 2.68629 44 6 44H38C41.3137 44 44 41.3137 44 38V16.7013L26.7022 8.73719e-07Z" fill="#EAEEF3"/>
<path fill-rule="evenodd" clip-rule="evenodd" d="M26.7144 0.0117188V10.6897C26.7144 14.0034 29.4006 16.6897 32.7144 16.6897H43.9879L26.7144 0.0117188Z" fill="#BCC3C9"/>
<rect x="12.8965" y="23.5173" width="18.2069" height="1.51724" rx="0.758621" fill="#BCC3C9"/>
<rect x="12.8965" y="28.8276" width="18.2069" height="1.51724" rx="0.758621" fill="#BCC3C9"/>
<rect x="12.8965" y="34.1379" width="18.2069" height="1.51724" rx="0.758621" fill="#BCC3C9"/>
</svg>
