<svg width="44" height="58" viewBox="0 0 44 58" fill="none" xmlns="http://www.w3.org/2000/svg">
<path fill-rule="evenodd" clip-rule="evenodd" d="M21.9847 0H6C2.6863 0 3.69727e-06 2.68629 3.55243e-06 6L0 52C0 55.3137 2.68629 58 6 58H38C41.3137 58 44 55.3137 44 52L44 22.0153L21.9847 0Z" fill="white"/>
<path fill-rule="evenodd" clip-rule="evenodd" d="M22 6.10352e-05V16.0001C22 19.3138 24.6855 22.0001 28 22.0001H44L22 6.10352e-05Z" fill="#EEEEEE"/>
<rect x="10" y="31" width="24" height="2" rx="1" fill="#E0E0E0"/>
<rect x="10" y="38" width="24" height="2" rx="1" fill="#E0E0E0"/>
<rect x="10" y="45" width="24" height="2" rx="1" fill="#E0E0E0"/>
</svg>
