<svg width="44" height="44" viewBox="0 0 44 44" fill="none" xmlns="http://www.w3.org/2000/svg">
<path fill-rule="evenodd" clip-rule="evenodd" d="M17.2978 43.9995L38 43.9995C41.3137 43.9995 44 41.3132 44 37.9995L44 5.99951C44 2.6858 41.3137 -0.000492331 38 -0.00049262L6.00001 -0.000495418C2.6863 -0.000495708 5.7061e-06 2.68579 5.41641e-06 5.9995L3.55442e-06 27.2982L17.2978 43.9995Z" fill="white"/>
<path fill-rule="evenodd" clip-rule="evenodd" d="M17.2858 43.9878L17.2858 33.3098C17.2858 29.9961 14.5995 27.3098 11.2858 27.3098L0.0120952 27.3098L17.2858 43.9878Z" fill="#BCC3C9"/>
<path d="M5.19329 5.19331C4.89703 5.48957 4.89703 5.9699 5.19329 6.26616L17.5311 18.604L18.6039 17.5311L6.26614 5.19331C5.96988 4.89705 5.48955 4.89705 5.19329 5.19331Z" fill="#2A3238"/>
<path fill-rule="evenodd" clip-rule="evenodd" d="M21.0171 16.0999L16.0999 21.0171L5.01838 9.93558C3.66054 8.57773 3.66054 6.37623 5.01838 5.01838C6.37623 3.66054 8.57773 3.66054 9.93558 5.01838L21.0171 16.0999ZM21.5733 16.9564L23.211 23.0685L17.0989 21.4308L21.5733 16.9564Z" fill="#2A3238"/>
</svg>
