<svg width="44" height="44" viewBox="0 0 44 44" fill="none" xmlns="http://www.w3.org/2000/svg">
<path fill-rule="evenodd" clip-rule="evenodd" d="M17.2978 44L38 44C41.3137 44 44 41.3137 44 38L44 6C44 2.68629 41.3137 -4.04954e-06 38 -4.33923e-06L6.00001 -7.13676e-06C2.6863 -7.42646e-06 5.7061e-06 2.68628 5.41641e-06 5.99999L3.55442e-06 27.2987L17.2978 44Z" fill="white"/>
<path fill-rule="evenodd" clip-rule="evenodd" d="M17.2858 43.9883L17.2858 33.3103C17.2858 29.9965 14.5995 27.3102 11.2858 27.3102L0.0120952 27.3102L17.2858 43.9883Z" fill="#BCC3C9"/>
<path fill-rule="evenodd" clip-rule="evenodd" d="M29.0171 24.0999L24.0999 29.0171L13.0184 17.9356C11.6605 16.5777 11.6605 14.3762 13.0184 13.0184C14.3762 11.6605 16.5777 11.6605 17.9356 13.0184L29.0171 24.0999ZM29.5733 24.9564L31.211 31.0685L25.0989 29.4308L29.5733 24.9564Z" fill="#2A3238"/>
</svg>
