<svg width="24" height="24" viewBox="0 0 24 24" fill="none" xmlns="http://www.w3.org/2000/svg">
<path d="M8.088 9.711H5.086V18.742H8.088V9.711Z" fill="black"/>
<path d="M6.58718 8.47797H6.56746C5.70493 8.52999 4.96354 7.87294 4.91152 7.0104C4.8595 6.14787 5.51655 5.40648 6.37909 5.35446C6.45506 5.34988 6.53126 5.35085 6.60708 5.35735C7.46925 5.29491 8.2188 5.9432 8.28125 6.80537C8.3437 7.66754 7.69541 8.41709 6.83324 8.47954C6.75131 8.48547 6.66903 8.48495 6.58718 8.47797ZM18.9117 18.7419H15.9102V13.9111C15.9102 12.6969 15.4755 11.8688 14.3896 11.8688C13.6958 11.8729 13.0794 12.3123 12.8493 12.9668C12.7724 13.2029 12.7389 13.451 12.7504 13.6991V18.7419H9.74892C9.74892 18.7392 9.78829 10.5582 9.74923 9.71107H12.7507V10.9911C13.3039 10.0283 14.3467 9.45327 15.4561 9.49919C17.431 9.49919 18.9117 10.79 18.9117 13.5638V18.7419Z" fill="black"/>
</svg>
