<svg width="451" height="247" viewBox="0 0 451 247" fill="none" xmlns="http://www.w3.org/2000/svg">
<path fill-rule="evenodd" clip-rule="evenodd" d="M123.5 0C55.2928 0 0 55.2928 0 123.5C0 191.707 55.2928 247 123.5 247H327.5C395.707 247 451 191.707 451 123.5C451 55.2928 395.707 0 327.5 0H123.5ZM102 88C102 79.7157 108.716 73 117 73C125.284 73 132 79.7157 132 88V108H152C160.284 108 167 114.716 167 123C167 131.284 160.284 138 152 138H132V158C132 166.284 125.284 173 117 173C108.716 173 102 166.284 102 158V138H82C73.7157 138 67 131.284 67 123C67 114.716 73.7157 108 82 108H102V88ZM335 143C326.716 143 320 149.716 320 158C320 166.284 326.716 173 335 173C343.284 173 350 166.284 350 158C350 149.716 343.284 143 335 143ZM320 88C320 79.7157 326.716 73 335 73C343.284 73 350 79.7157 350 88C350 96.2843 343.284 103 335 103C326.716 103 320 96.2843 320 88ZM300 108C291.716 108 285 114.716 285 123C285 131.284 291.716 138 300 138C308.284 138 315 131.284 315 123C315 114.716 308.284 108 300 108ZM355 123C355 114.716 361.716 108 370 108C378.284 108 385 114.716 385 123C385 131.284 378.284 138 370 138C361.716 138 355 131.284 355 123Z" />
</svg>
